<mxfile host="app.diagrams.net" agent="Mozilla/5.0 (Windows NT 10.0; Win64; x64) AppleWebKit/537.36 (KHTML, like Gecko) Chrome/130.0.0.0 Safari/537.36 Edg/130.0.0.0" version="24.8.4">
  <diagram name="Page-1" id="i8GSdYOKzzLzcijGYPF3">
    <mxGraphModel dx="1678" dy="921" grid="1" gridSize="10" guides="1" tooltips="1" connect="1" arrows="1" fold="1" page="1" pageScale="1" pageWidth="827" pageHeight="1169" math="0" shadow="0">
      <root>
        <mxCell id="0" />
        <mxCell id="1" parent="0" />
        <mxCell id="_2Vfo-zxPoyLCRZKS8gb-29" style="edgeStyle=orthogonalEdgeStyle;rounded=0;orthogonalLoop=1;jettySize=auto;html=1;exitX=0.5;exitY=1;exitDx=0;exitDy=0;entryX=0.5;entryY=0;entryDx=0;entryDy=0;" edge="1" parent="1" source="_2Vfo-zxPoyLCRZKS8gb-1" target="_2Vfo-zxPoyLCRZKS8gb-28">
          <mxGeometry relative="1" as="geometry" />
        </mxCell>
        <mxCell id="_2Vfo-zxPoyLCRZKS8gb-1" value="START" style="ellipse;whiteSpace=wrap;html=1;" vertex="1" parent="1">
          <mxGeometry x="465" y="10" width="120" height="80" as="geometry" />
        </mxCell>
        <mxCell id="_2Vfo-zxPoyLCRZKS8gb-32" style="edgeStyle=orthogonalEdgeStyle;rounded=0;orthogonalLoop=1;jettySize=auto;html=1;exitX=0.5;exitY=1;exitDx=0;exitDy=0;entryX=0.5;entryY=0;entryDx=0;entryDy=0;" edge="1" parent="1" source="_2Vfo-zxPoyLCRZKS8gb-3" target="_2Vfo-zxPoyLCRZKS8gb-8">
          <mxGeometry relative="1" as="geometry" />
        </mxCell>
        <mxCell id="_2Vfo-zxPoyLCRZKS8gb-3" value="board = [col][row]" style="whiteSpace=wrap;html=1;aspect=fixed;" vertex="1" parent="1">
          <mxGeometry x="485" y="550" width="80" height="80" as="geometry" />
        </mxCell>
        <mxCell id="_2Vfo-zxPoyLCRZKS8gb-7" style="edgeStyle=orthogonalEdgeStyle;rounded=0;orthogonalLoop=1;jettySize=auto;html=1;exitX=0.5;exitY=1;exitDx=0;exitDy=0;entryX=0.5;entryY=0;entryDx=0;entryDy=0;" edge="1" parent="1" source="_2Vfo-zxPoyLCRZKS8gb-5" target="_2Vfo-zxPoyLCRZKS8gb-3">
          <mxGeometry relative="1" as="geometry" />
        </mxCell>
        <mxCell id="_2Vfo-zxPoyLCRZKS8gb-5" value="col = 7&lt;div&gt;row = 6&lt;/div&gt;" style="whiteSpace=wrap;html=1;aspect=fixed;" vertex="1" parent="1">
          <mxGeometry x="485" y="430" width="80" height="80" as="geometry" />
        </mxCell>
        <mxCell id="_2Vfo-zxPoyLCRZKS8gb-33" style="edgeStyle=orthogonalEdgeStyle;rounded=0;orthogonalLoop=1;jettySize=auto;html=1;exitX=0.5;exitY=1;exitDx=0;exitDy=0;entryX=0.5;entryY=0;entryDx=0;entryDy=0;" edge="1" parent="1" source="_2Vfo-zxPoyLCRZKS8gb-8" target="_2Vfo-zxPoyLCRZKS8gb-19">
          <mxGeometry relative="1" as="geometry" />
        </mxCell>
        <mxCell id="_2Vfo-zxPoyLCRZKS8gb-8" value="humanTurn = INPUT &quot;Human turn, which column?: &quot;" style="shape=parallelogram;perimeter=parallelogramPerimeter;whiteSpace=wrap;html=1;fixedSize=1;" vertex="1" parent="1">
          <mxGeometry x="400" y="680" width="250" height="90" as="geometry" />
        </mxCell>
        <mxCell id="_2Vfo-zxPoyLCRZKS8gb-34" style="edgeStyle=orthogonalEdgeStyle;rounded=0;orthogonalLoop=1;jettySize=auto;html=1;exitX=0.5;exitY=1;exitDx=0;exitDy=0;entryX=0.5;entryY=0;entryDx=0;entryDy=0;" edge="1" parent="1" source="_2Vfo-zxPoyLCRZKS8gb-19" target="_2Vfo-zxPoyLCRZKS8gb-26">
          <mxGeometry relative="1" as="geometry" />
        </mxCell>
        <mxCell id="_2Vfo-zxPoyLCRZKS8gb-47" value="No" style="edgeLabel;html=1;align=center;verticalAlign=middle;resizable=0;points=[];" vertex="1" connectable="0" parent="_2Vfo-zxPoyLCRZKS8gb-34">
          <mxGeometry x="-0.1724" y="2" relative="1" as="geometry">
            <mxPoint as="offset" />
          </mxGeometry>
        </mxCell>
        <mxCell id="_2Vfo-zxPoyLCRZKS8gb-19" value="If board[humanTurn, 0] == 1 || board[humanTurn, 0] == 0" style="rhombus;whiteSpace=wrap;html=1;" vertex="1" parent="1">
          <mxGeometry x="410" y="800" width="230" height="120" as="geometry" />
        </mxCell>
        <mxCell id="_2Vfo-zxPoyLCRZKS8gb-42" style="edgeStyle=orthogonalEdgeStyle;rounded=0;orthogonalLoop=1;jettySize=auto;html=1;entryX=0.5;entryY=0;entryDx=0;entryDy=0;" edge="1" parent="1" source="_2Vfo-zxPoyLCRZKS8gb-20" target="_2Vfo-zxPoyLCRZKS8gb-8">
          <mxGeometry relative="1" as="geometry" />
        </mxCell>
        <mxCell id="_2Vfo-zxPoyLCRZKS8gb-20" value="OUTPUT &quot;Position not valid, enter again&quot;" style="shape=parallelogram;perimeter=parallelogramPerimeter;whiteSpace=wrap;html=1;fixedSize=1;" vertex="1" parent="1">
          <mxGeometry x="110" y="600" width="250" height="110" as="geometry" />
        </mxCell>
        <mxCell id="_2Vfo-zxPoyLCRZKS8gb-26" value="board[humanTurn ,0] = 1" style="whiteSpace=wrap;html=1;aspect=fixed;" vertex="1" parent="1">
          <mxGeometry x="455" y="990" width="140" height="140" as="geometry" />
        </mxCell>
        <mxCell id="_2Vfo-zxPoyLCRZKS8gb-49" style="edgeStyle=orthogonalEdgeStyle;rounded=0;orthogonalLoop=1;jettySize=auto;html=1;entryX=1;entryY=0.5;entryDx=0;entryDy=0;" edge="1" parent="1" source="_2Vfo-zxPoyLCRZKS8gb-28" target="_2Vfo-zxPoyLCRZKS8gb-48">
          <mxGeometry relative="1" as="geometry" />
        </mxCell>
        <mxCell id="_2Vfo-zxPoyLCRZKS8gb-56" value="Yes" style="edgeLabel;html=1;align=center;verticalAlign=middle;resizable=0;points=[];" vertex="1" connectable="0" parent="_2Vfo-zxPoyLCRZKS8gb-49">
          <mxGeometry x="-0.4057" relative="1" as="geometry">
            <mxPoint as="offset" />
          </mxGeometry>
        </mxCell>
        <mxCell id="_2Vfo-zxPoyLCRZKS8gb-59" value="No" style="edgeStyle=orthogonalEdgeStyle;rounded=0;orthogonalLoop=1;jettySize=auto;html=1;exitX=0.5;exitY=1;exitDx=0;exitDy=0;entryX=0.5;entryY=0;entryDx=0;entryDy=0;" edge="1" parent="1" source="_2Vfo-zxPoyLCRZKS8gb-28" target="_2Vfo-zxPoyLCRZKS8gb-57">
          <mxGeometry relative="1" as="geometry" />
        </mxCell>
        <mxCell id="_2Vfo-zxPoyLCRZKS8gb-28" value="if game_state == 1" style="rhombus;whiteSpace=wrap;html=1;" vertex="1" parent="1">
          <mxGeometry x="435" y="130" width="180" height="80" as="geometry" />
        </mxCell>
        <mxCell id="_2Vfo-zxPoyLCRZKS8gb-44" style="edgeStyle=orthogonalEdgeStyle;rounded=0;orthogonalLoop=1;jettySize=auto;html=1;entryX=0.446;entryY=1.001;entryDx=0;entryDy=0;entryPerimeter=0;" edge="1" parent="1" source="_2Vfo-zxPoyLCRZKS8gb-19" target="_2Vfo-zxPoyLCRZKS8gb-20">
          <mxGeometry relative="1" as="geometry" />
        </mxCell>
        <mxCell id="_2Vfo-zxPoyLCRZKS8gb-45" value="Yes" style="edgeLabel;html=1;align=center;verticalAlign=middle;resizable=0;points=[];" vertex="1" connectable="0" parent="_2Vfo-zxPoyLCRZKS8gb-44">
          <mxGeometry x="-0.593" relative="1" as="geometry">
            <mxPoint as="offset" />
          </mxGeometry>
        </mxCell>
        <mxCell id="_2Vfo-zxPoyLCRZKS8gb-48" value="OUTPUT &quot;Human Wins!&quot;" style="shape=parallelogram;perimeter=parallelogramPerimeter;whiteSpace=wrap;html=1;fixedSize=1;" vertex="1" parent="1">
          <mxGeometry x="160" y="130" width="200" height="80" as="geometry" />
        </mxCell>
        <mxCell id="_2Vfo-zxPoyLCRZKS8gb-61" style="edgeStyle=orthogonalEdgeStyle;rounded=0;orthogonalLoop=1;jettySize=auto;html=1;exitX=0;exitY=0.5;exitDx=0;exitDy=0;entryX=1;entryY=0.5;entryDx=0;entryDy=0;" edge="1" parent="1" source="_2Vfo-zxPoyLCRZKS8gb-57" target="_2Vfo-zxPoyLCRZKS8gb-60">
          <mxGeometry relative="1" as="geometry" />
        </mxCell>
        <mxCell id="_2Vfo-zxPoyLCRZKS8gb-63" value="Yes" style="edgeLabel;html=1;align=center;verticalAlign=middle;resizable=0;points=[];" vertex="1" connectable="0" parent="_2Vfo-zxPoyLCRZKS8gb-61">
          <mxGeometry x="-0.2481" y="1" relative="1" as="geometry">
            <mxPoint as="offset" />
          </mxGeometry>
        </mxCell>
        <mxCell id="_2Vfo-zxPoyLCRZKS8gb-64" style="edgeStyle=orthogonalEdgeStyle;rounded=0;orthogonalLoop=1;jettySize=auto;html=1;exitX=0.5;exitY=1;exitDx=0;exitDy=0;entryX=0.5;entryY=0;entryDx=0;entryDy=0;" edge="1" parent="1" source="_2Vfo-zxPoyLCRZKS8gb-57" target="_2Vfo-zxPoyLCRZKS8gb-5">
          <mxGeometry relative="1" as="geometry" />
        </mxCell>
        <mxCell id="_2Vfo-zxPoyLCRZKS8gb-65" value="No" style="edgeLabel;html=1;align=center;verticalAlign=middle;resizable=0;points=[];" vertex="1" connectable="0" parent="_2Vfo-zxPoyLCRZKS8gb-64">
          <mxGeometry x="-0.3103" y="2" relative="1" as="geometry">
            <mxPoint as="offset" />
          </mxGeometry>
        </mxCell>
        <mxCell id="_2Vfo-zxPoyLCRZKS8gb-57" value="else if game_state == 0" style="rhombus;whiteSpace=wrap;html=1;" vertex="1" parent="1">
          <mxGeometry x="440" y="260" width="170" height="80" as="geometry" />
        </mxCell>
        <mxCell id="_2Vfo-zxPoyLCRZKS8gb-60" value="OUTPUT &quot;Bot Wins!&quot;" style="shape=parallelogram;perimeter=parallelogramPerimeter;whiteSpace=wrap;html=1;fixedSize=1;" vertex="1" parent="1">
          <mxGeometry x="160" y="260" width="200" height="80" as="geometry" />
        </mxCell>
      </root>
    </mxGraphModel>
  </diagram>
</mxfile>
